<svg width="189" height="189" viewBox="0 0 189 189" fill="none" xmlns="http://www.w3.org/2000/svg">
<g clip-path="url(#clip0_97_2061)">
<g clip-path="url(#clip1_97_2061)">
<path d="M0 94.5004C0 42.3092 42.3092 0 94.5004 0C146.692 0 189.001 42.3092 189 94.5004C189 146.692 146.691 189.001 94.5004 189C42.3092 189 0 146.691 0 94.5004ZM94.5004 179.034C141.187 179.034 179.034 141.187 179.034 94.5004C179.034 47.8135 141.187 9.96674 94.5004 9.96588C47.8135 9.96588 9.96674 47.8126 9.96588 94.5004C9.96588 141.187 47.8126 179.034 94.5004 179.034Z" fill="black"/>
<g clip-path="url(#clip2_97_2061)">
<g clip-path="url(#clip3_97_2061)">
<path d="M59.0392 79.0332C57.5754 88.482 59.612 97.8342 64.6277 104.69C68.4836 109.958 73.8592 113.364 79.7659 114.279C85.9953 115.245 92.1138 113.809 96.9967 110.236C98.3661 109.235 99.5863 108.1 100.646 106.861C98.2081 107.934 95.3639 108.251 92.2784 107.772C79.4214 105.78 70.6913 92.9984 72.8179 79.2823C73.8427 72.6656 77.6284 66.6667 83.4759 62.3873C90.9024 56.9535 100.981 54.7391 111.129 56.3116C119.33 57.5822 130.518 62.8558 139.176 73.0047C139.176 73.0047 114.119 29.7483 77.601 50.6682C65.8259 57.4132 60.3 70.8913 59.0392 79.0332Z" fill="black"/>
<path d="M130.407 111.418C132.227 102.03 130.544 92.609 125.791 85.5688C122.136 80.158 116.893 76.5523 111.024 75.4155C104.837 74.2151 98.6679 75.4199 93.6543 78.8072C92.2476 79.7542 90.9868 80.8416 89.8796 82.041C92.3562 81.06 95.2114 80.8515 98.2761 81.4451C111.049 83.9217 119.29 97.0223 116.649 110.651C115.375 117.222 111.366 123.076 105.36 127.131C97.7352 132.279 87.5786 134.114 77.4967 132.159C69.3515 130.58 58.3698 124.888 50.1006 114.42C50.1006 114.42 73.5069 158.591 110.789 139.062C122.81 132.767 128.839 119.507 130.407 111.418Z" fill="black"/>
<path d="M79.034 130.756C88.4828 132.22 97.8339 130.183 104.69 125.167C109.958 121.311 113.364 115.935 114.28 110.028C115.245 103.8 113.809 97.6806 110.236 92.7987C109.235 91.4293 108.1 90.2091 106.86 89.148C107.935 91.5862 108.251 94.4315 107.772 97.516C105.779 110.373 92.9993 119.103 79.2809 116.978C72.6654 115.953 66.6654 112.166 62.3881 106.32C56.9543 98.8931 54.7389 88.8133 56.3113 78.6656C57.582 70.4644 62.8556 59.2764 73.0044 50.6199C73.0044 50.6199 29.7481 75.6765 50.6679 112.194C57.413 123.969 70.891 129.494 79.034 130.756Z" fill="black"/>
<path d="M139.062 79.0058C132.766 66.985 119.506 60.9553 111.417 59.3873C102.031 57.5669 92.6084 59.2502 85.5681 64.0047C80.1574 67.6598 76.5517 72.9016 75.4138 78.7699C74.2133 84.9586 75.4182 91.1265 78.8066 96.14C79.7536 97.5468 80.841 98.8075 82.0392 99.9158C81.0583 97.4392 80.8498 94.5841 81.4445 91.5193C83.9211 78.7468 97.0217 70.5051 110.649 73.1463C117.222 74.4202 123.075 78.4308 127.129 84.4363C132.279 92.0614 134.111 102.217 132.158 112.299C130.578 120.444 124.887 131.426 114.418 139.694C114.418 139.694 158.59 116.287 139.062 79.0058Z" fill="black"/>
</g>
</g>
</g>
</g>
<defs>
<clipPath id="clip0_97_2061">
<rect width="189" height="189" fill="white"/>
</clipPath>
<clipPath id="clip1_97_2061">
<rect width="189" height="189" fill="white"/>
</clipPath>
<clipPath id="clip2_97_2061">
<rect width="99.091" height="99.0906" fill="white" transform="translate(44.9541 44.9546)"/>
</clipPath>
<clipPath id="clip3_97_2061">
<rect width="99.091" height="99.0906" fill="white" transform="translate(44.9541 44.9546)"/>
</clipPath>
</defs>
</svg>
