<svg width="754" height="245" viewBox="0 0 754 245" fill="none" xmlns="http://www.w3.org/2000/svg">
<g clip-path="url(#clip0_46_4417)">
<g clip-path="url(#clip1_46_4417)">
<g clip-path="url(#clip2_46_4417)">
<g clip-path="url(#clip3_46_4417)">
<g clip-path="url(#clip4_46_4417)">
<g clip-path="url(#clip5_46_4417)">
<path d="M365.983 191.714H347.539L313.824 53.2854H331.475L346.349 119.922L357.852 171.684H358.248L371.139 119.922L388.592 53.2854H407.631L424.488 119.922L437.379 171.486H437.974L449.873 119.922L465.541 53.2854H482.597L447.097 191.714H428.653L410.606 122.698L397.913 71.9277H397.516L384.427 122.698L365.983 191.714ZM612.895 191.714V75.1009H611.903L600.202 98.3046L567.082 158.595L533.962 98.3046L522.261 75.1009H521.27V191.714H505.007V53.2854H527.219L566.884 127.855H567.875L607.738 53.2854H629.157V191.714H612.895ZM704.916 194.094C693.678 194.094 684.092 191.939 676.159 187.629C668.227 183.345 661.484 177.435 655.931 169.899L668.227 159.586C673.118 166.065 678.539 170.983 684.489 174.341C690.439 177.726 697.446 179.418 705.511 179.418C715.427 179.418 722.99 177.039 728.199 172.279C733.435 167.519 736.053 161.173 736.053 153.24C736.053 146.629 734.07 141.539 730.103 137.969C726.137 134.399 719.592 131.557 710.469 129.441L699.165 126.863C686.472 123.954 676.781 119.552 670.091 113.655C663.427 107.784 660.095 99.4945 660.095 88.7851C660.095 82.7032 661.219 77.2824 663.467 72.5227C665.714 67.7629 668.848 63.7965 672.867 60.6233C676.913 57.4502 681.739 55.0306 687.345 53.3647C692.977 51.7252 699.165 50.9055 705.908 50.9055C716.353 50.9055 725.304 52.8226 732.761 56.6569C740.244 60.4911 746.564 66.1102 751.72 73.5143L739.226 82.6371C735.392 77.3485 730.764 73.1837 725.343 70.1428C719.923 67.1019 713.18 65.5814 705.115 65.5814C696.256 65.5814 689.275 67.4588 684.172 71.2137C679.095 74.9951 676.556 80.6539 676.556 88.1901C676.556 94.8009 678.698 99.7854 682.982 103.144C687.292 106.528 693.81 109.212 702.536 111.196L713.841 113.774C727.459 116.815 737.309 121.442 743.391 127.656C749.473 133.87 752.514 142.134 752.514 152.447C752.514 158.793 751.416 164.544 749.221 169.701C747.053 174.857 743.92 179.22 739.821 182.79C735.722 186.36 730.725 189.136 724.828 191.12C718.957 193.103 712.32 194.094 704.916 194.094Z" fill="black"/>
</g>
</g>
</g>
</g>
<g clip-path="url(#clip6_46_4417)">
<g clip-path="url(#clip7_46_4417)">
<path d="M1.33203 122.5C1.33203 54.8769 56.1516 0.057373 123.775 0.057373C191.399 0.057373 246.218 54.8769 246.217 122.5C246.217 190.124 191.398 244.943 123.775 244.942C56.1516 244.942 1.33203 190.123 1.33203 122.5ZM123.775 232.03C184.267 232.03 233.304 182.992 233.304 122.5C233.304 62.0087 184.267 12.9712 123.775 12.9701C63.2834 12.9701 14.2458 62.0076 14.2447 122.5C14.2447 182.992 63.2823 232.03 123.775 232.03Z" fill="black"/>
<g clip-path="url(#clip8_46_4417)">
<g clip-path="url(#clip9_46_4417)">
<path d="M77.8287 102.46C75.9321 114.703 78.5709 126.82 85.0697 135.703C90.0657 142.529 97.0309 146.942 104.684 148.128C112.755 149.379 120.683 147.518 127.01 142.889C128.784 141.592 130.365 140.122 131.739 138.516C128.579 139.906 124.894 140.317 120.896 139.697C104.238 137.115 92.9263 120.555 95.6816 102.783C97.0095 94.2096 101.915 86.4369 109.491 80.8921C119.113 73.8516 132.172 70.9825 145.321 73.0198C155.947 74.6662 170.443 81.4992 181.66 94.6489C181.66 94.6489 149.195 38.6021 101.879 65.7078C86.6222 74.4473 79.4623 91.9106 77.8287 102.46Z" fill="black"/>
<path d="M170.299 144.42C172.658 132.257 170.477 120.05 164.318 110.928C159.582 103.917 152.789 99.2455 145.185 97.7726C137.168 96.2172 129.175 97.7783 122.679 102.167C120.856 103.394 119.223 104.803 117.788 106.357C120.997 105.086 124.697 104.816 128.668 105.585C145.217 108.794 155.895 125.768 152.473 143.426C150.823 151.941 145.628 159.526 137.846 164.78C127.967 171.45 114.807 173.828 101.744 171.294C91.1902 169.248 76.9614 161.874 66.2471 148.31C66.2471 148.31 96.5744 205.543 144.88 180.238C160.456 172.082 168.268 154.901 170.299 144.42Z" fill="black"/>
<path d="M103.736 169.477C115.979 171.374 128.095 168.735 136.978 162.235C143.804 157.239 148.217 150.273 149.404 142.62C150.654 134.55 148.794 126.621 144.164 120.296C142.867 118.522 141.397 116.941 139.79 115.566C141.182 118.725 141.592 122.411 140.972 126.408C138.39 143.067 121.831 154.378 104.056 151.624C95.4843 150.296 87.7101 145.39 82.1681 137.815C75.1276 128.192 72.2571 115.132 74.2945 101.984C75.9409 91.3576 82.7738 76.8614 95.9236 65.6453C95.9236 65.6453 39.8768 98.1109 66.9824 145.427C75.7219 160.683 93.1853 167.842 103.736 169.477Z" fill="black"/>
<path d="M181.514 102.424C173.356 86.8491 156.176 79.0366 145.695 77.0049C133.533 74.6462 121.325 76.8272 112.203 82.9876C105.192 87.7234 100.52 94.5151 99.0457 102.119C97.4903 110.137 99.0514 118.129 103.442 124.625C104.669 126.448 106.078 128.081 107.63 129.517C106.359 126.308 106.089 122.609 106.86 118.638C110.069 102.089 127.043 91.41 144.7 94.8322C153.216 96.4828 160.799 101.679 166.053 109.461C172.725 119.34 175.099 132.499 172.569 145.562C170.521 156.115 163.148 170.344 149.583 181.057C149.583 181.057 206.816 150.73 181.514 102.424Z" fill="black"/>
</g>
</g>
</g>
</g>
</g>
</g>
<defs>
<clipPath id="clip0_46_4417">
<rect width="751.181" height="244.885" fill="white" transform="translate(1.33203 0.057373)"/>
</clipPath>
<clipPath id="clip1_46_4417">
<rect width="751.181" height="244.885" fill="white" transform="translate(1.33203 0.057373)"/>
</clipPath>
<clipPath id="clip2_46_4417">
<rect width="438.689" height="143.189" fill="white" transform="translate(313.824 50.9055)"/>
</clipPath>
<clipPath id="clip3_46_4417">
<rect width="438.689" height="143.189" fill="white" transform="translate(313.824 50.9055)"/>
</clipPath>
<clipPath id="clip4_46_4417">
<rect width="438.689" height="143.189" fill="white" transform="translate(313.824 50.9055)"/>
</clipPath>
<clipPath id="clip5_46_4417">
<rect width="438.689" height="143.189" fill="white" transform="translate(313.824 50.9055)"/>
</clipPath>
<clipPath id="clip6_46_4417">
<rect width="244.885" height="244.885" fill="white" transform="translate(1.33203 0.057373)"/>
</clipPath>
<clipPath id="clip7_46_4417">
<rect width="244.885" height="244.885" fill="white" transform="translate(1.33203 0.057373)"/>
</clipPath>
<clipPath id="clip8_46_4417">
<rect width="128.391" height="128.391" fill="white" transform="translate(59.5791 58.3047)"/>
</clipPath>
<clipPath id="clip9_46_4417">
<rect width="128.391" height="128.391" fill="white" transform="translate(59.5791 58.3047)"/>
</clipPath>
</defs>
</svg>