<svg width="91" height="189" viewBox="0 0 91 189" fill="none" xmlns="http://www.w3.org/2000/svg">
<g clip-path="url(#clip0_81_2077)">
<g clip-path="url(#clip1_81_2077)">
<path d="M0.982422 94.5004C0.982422 42.3092 43.2916 0 95.4828 0C147.674 0 189.983 42.3092 189.982 94.5004C189.982 146.692 147.673 189.001 95.4828 189C43.2916 189 0.982422 146.691 0.982422 94.5004ZM95.4828 179.034C142.17 179.034 180.017 141.187 180.017 94.5004C180.017 47.8135 142.17 9.96674 95.4828 9.96588C48.7959 9.96588 10.9492 47.8126 10.9483 94.5004C10.9483 141.187 48.795 179.034 95.4828 179.034Z" fill="black"/>
<g clip-path="url(#clip2_81_2077)">
<g clip-path="url(#clip3_81_2077)">
<path d="M60.0216 79.0333C58.5578 88.4821 60.5944 97.8343 65.6101 104.69C69.466 109.958 74.8416 113.364 80.7484 114.279C86.9777 115.245 93.0962 113.809 97.9791 110.236C99.3486 109.235 100.569 108.101 101.629 106.861C99.1906 107.934 96.3464 108.251 93.2608 107.773C80.4038 105.78 71.6737 92.9986 73.8003 79.2824C74.8252 72.6657 78.6108 66.6668 84.4583 62.3874C91.8848 56.9536 101.963 54.7393 112.111 56.3117C120.312 57.5823 131.5 62.8559 140.158 73.0048C140.158 73.0048 115.101 29.7484 78.5834 50.6683C66.8083 57.4134 61.2824 70.8914 60.0216 79.0333Z" fill="black"/>
<path d="M131.389 111.418C133.21 102.03 131.527 92.6091 126.773 85.5689C123.118 80.1581 117.875 76.5524 112.007 75.4156C105.819 74.2152 99.6503 75.42 94.6367 78.8074C93.23 79.7543 91.9692 80.8417 90.8621 82.0411C93.3386 81.0601 96.1938 80.8516 99.2585 81.4453C112.031 83.9218 120.273 97.0224 117.632 110.651C116.358 117.222 112.348 123.077 106.343 127.131C98.7176 132.28 88.561 134.114 78.4791 132.159C70.3339 130.58 59.3522 124.888 51.083 114.42C51.083 114.42 74.4894 158.591 111.771 139.062C123.793 132.767 129.821 119.507 131.389 111.418Z" fill="black"/>
<path d="M80.0165 130.756C89.4652 132.22 98.8164 130.184 105.672 125.167C110.94 121.311 114.346 115.935 115.263 110.029C116.227 103.8 114.792 97.6808 111.218 92.7989C110.217 91.4295 109.083 90.2093 107.843 89.1483C108.917 91.5864 109.233 94.4317 108.755 97.5162C106.762 110.373 93.9817 119.103 80.2634 116.978C73.6478 115.953 67.6478 112.166 63.3705 106.32C57.9367 98.8933 55.7213 88.8136 57.2937 78.6658C58.5644 70.4647 63.838 59.2767 73.9868 50.6201C73.9868 50.6201 30.7305 75.6768 51.6504 112.195C58.3954 123.97 71.8735 129.495 80.0165 130.756Z" fill="black"/>
<path d="M140.045 79.0059C133.748 66.9851 120.489 60.9555 112.399 59.3874C103.013 57.567 93.5908 59.2503 86.5506 64.0048C81.1398 67.6599 77.5341 72.9017 76.3962 78.77C75.1958 84.9587 76.4006 91.1266 79.789 96.1402C80.736 97.5469 81.8234 98.8077 83.0217 99.9159C82.0407 97.4393 81.8322 94.5842 82.4269 91.5195C84.9035 78.747 98.0041 70.5052 111.631 73.1464C118.204 74.4203 124.057 78.4309 128.112 84.4364C133.261 92.0615 135.094 102.217 133.14 112.299C131.56 120.444 125.87 131.426 115.401 139.694C115.401 139.694 159.572 116.288 140.045 79.0059Z" fill="black"/>
</g>
</g>
</g>
</g>
<defs>
<clipPath id="clip0_81_2077">
<rect width="189" height="189" fill="white" transform="translate(0.982422)"/>
</clipPath>
<clipPath id="clip1_81_2077">
<rect width="189" height="189" fill="white" transform="translate(0.982422)"/>
</clipPath>
<clipPath id="clip2_81_2077">
<rect width="99.091" height="99.0906" fill="white" transform="translate(45.9365 44.9547)"/>
</clipPath>
<clipPath id="clip3_81_2077">
<rect width="99.091" height="99.0906" fill="white" transform="translate(45.9365 44.9547)"/>
</clipPath>
</defs>
</svg>
